# xmcd CD database file
#
# Track frame offsets:
#	150
#	13422
#	25610
#	39070
#	54140
#	74442
#	85865
#	97462
#	112315
#	126860
#
# Disc length: 1955 seconds
#
# Revision: 1
# Processed by: cddbd v1.5.2PL0 Copyright (c) Steve Scherf et al.
# Submitted via: jetAudio 7
#
DISCID=8407a10a
DTITLE=John Fogerty - John Fogerty
DYEAR=1900
DGENRE=Rock
TTITLE0=Rockin' All over the World
TTITLE1=You Rascal You
TTITLE2=Wall
TTITLE3=Travelin' High
TTITLE4=Lonely Teardrops
TTITLE5=Almost Saturday Night
TTITLE6=Where the River Flows
TTITLE7=Sea Cruise
TTITLE8=Dream/Song
TTITLE9=Flyin' Away
EXTD=
EXTT0=
EXTT1=
EXTT2=
EXTT3=
EXTT4=
EXTT5=
EXTT6=
EXTT7=
EXTT8=
EXTT9=
PLAYORDER=
